<?xml version="1.0" encoding="UTF-8" standalone="no"?>
<!DOCTYPE svg PUBLIC "-//W3C//DTD SVG 1.1//EN"
 "http://www.w3.org/Graphics/SVG/1.1/DTD/svg11.dtd">
<!-- Generated by graphviz version 2.26.3 (20100126.1600)
 -->
<!-- Title: g Pages: 1 -->
<svg width="504pt" height="86pt"
 viewBox="0.00 0.00 504.00 85.74" xmlns="http://www.w3.org/2000/svg" xmlns:xlink="http://www.w3.org/1999/xlink">
<g id="graph1" class="graph" transform="scale(0.400636 0.400636) rotate(0) translate(4 210)">
<title>g</title>
<polygon fill="white" stroke="white" points="-4,5 -4,-210 1255,-210 1255,5 -4,5"/>
<!-- N0 -->
<g id="node1" class="node"><title>N0</title>
<polygon fill="#ffffff" stroke="#ffffff" stroke-width="1.5" points="155.5,-85 228.5,-85 240.5,-97 240.5,-109 228.5,-121 155.5,-121 143.5,-109 143.5,-97 155.5,-85"/>
<path fill="#ffffff" stroke="#ffffff" stroke-width="1.5" d="M228.5,-85C234.5,-85 240.5,-91 240.5,-97"/>
<path fill="#ffffff" stroke="#ffffff" stroke-width="1.5" d="M240.5,-109C240.5,-115 234.5,-121 228.5,-121"/>
<path fill="#ffffff" stroke="#ffffff" stroke-width="1.5" d="M155.5,-121C149.5,-121 143.5,-115 143.5,-109"/>
<path fill="#ffffff" stroke="#ffffff" stroke-width="1.5" d="M143.5,-97C143.5,-91 149.5,-85 155.5,-85"/>
<polyline fill="none" stroke="#2e3436" stroke-width="1.5" points="155.5,-85 228.5,-85 "/>
<path fill="none" stroke="#2e3436" stroke-width="1.5" d="M228.5,-85C234.5,-85 240.5,-91 240.5,-97"/>
<polyline fill="none" stroke="#2e3436" stroke-width="1.5" points="240.5,-97 240.5,-109 "/>
<path fill="none" stroke="#2e3436" stroke-width="1.5" d="M240.5,-109C240.5,-115 234.5,-121 228.5,-121"/>
<polyline fill="none" stroke="#2e3436" stroke-width="1.5" points="228.5,-121 155.5,-121 "/>
<path fill="none" stroke="#2e3436" stroke-width="1.5" d="M155.5,-121C149.5,-121 143.5,-115 143.5,-109"/>
<polyline fill="none" stroke="#2e3436" stroke-width="1.5" points="143.5,-109 143.5,-97 "/>
<path fill="none" stroke="#2e3436" stroke-width="1.5" d="M143.5,-97C143.5,-91 149.5,-85 155.5,-85"/>
<text text-anchor="start" x="151.5" y="-100.8" font-family="FreeSans" font-size="8.00" fill="#1c2021">name = &#39;U2G2R34&#39;</text>
</g>
<!-- N11 -->
<g id="node3" class="node"><title>N11</title>
<polygon fill="#ffffff" stroke="#ffffff" stroke-width="1.5" points="11.5,-1 76.5,-1 88.5,-13 88.5,-25 76.5,-37 11.5,-37 -0.5,-25 -0.5,-13 11.5,-1"/>
<path fill="#ffffff" stroke="#ffffff" stroke-width="1.5" d="M76.5,-1C82.5,-1 88.5,-7 88.5,-13"/>
<path fill="#ffffff" stroke="#ffffff" stroke-width="1.5" d="M88.5,-25C88.5,-31 82.5,-37 76.5,-37"/>
<path fill="#ffffff" stroke="#ffffff" stroke-width="1.5" d="M11.5,-37C5.5,-37 -0.5,-31 -0.5,-25"/>
<path fill="#ffffff" stroke="#ffffff" stroke-width="1.5" d="M-0.5,-13C-0.5,-7 5.5,-1 11.5,-1"/>
<polyline fill="none" stroke="#2e3436" stroke-width="1.5" points="11.5,-1 76.5,-1 "/>
<path fill="none" stroke="#2e3436" stroke-width="1.5" d="M76.5,-1C82.5,-1 88.5,-7 88.5,-13"/>
<polyline fill="none" stroke="#2e3436" stroke-width="1.5" points="88.5,-13 88.5,-25 "/>
<path fill="none" stroke="#2e3436" stroke-width="1.5" d="M88.5,-25C88.5,-31 82.5,-37 76.5,-37"/>
<polyline fill="none" stroke="#2e3436" stroke-width="1.5" points="76.5,-37 11.5,-37 "/>
<path fill="none" stroke="#2e3436" stroke-width="1.5" d="M11.5,-37C5.5,-37 -0.5,-31 -0.5,-25"/>
<polyline fill="none" stroke="#2e3436" stroke-width="1.5" points="-0.5,-25 -0.5,-13 "/>
<path fill="none" stroke="#2e3436" stroke-width="1.5" d="M-0.5,-13C-0.5,-7 5.5,-1 11.5,-1"/>
<text text-anchor="start" x="7.5" y="-16.8" font-family="FreeSans" font-size="8.00" fill="#1c2021">name = &#39;Group2&#39;</text>
</g>
<!-- N0&#45;&gt;N11 -->
<g id="edge2" class="edge"><title>N0&#45;&gt;N11</title>
<path fill="none" stroke="#2e3436" stroke-width="2" d="M143.324,-100.262C93.6082,-96.3275 21.3259,-87.0681 4,-66 -2.29108,-58.3501 1.17633,-50.0968 8.17519,-42.6732"/>
<polygon fill="#2e3436" stroke="#2e3436" points="14.1125,-37.1818 10.8981,-44.7521 11.699,-40.0952 8.94593,-42.6414 8.60643,-42.2744 8.26693,-41.9073 11.02,-39.361 6.3148,-39.7966 14.1125,-37.1818 14.1125,-37.1818"/>
<text text-anchor="middle" x="25" y="-58.8" font-family="FreeSans" font-size="8.00" fill="#2e3436">hasGroup</text>
</g>
<!-- N12 -->
<g id="node5" class="node"><title>N12</title>
<polygon fill="#ffffff" stroke="#ffffff" stroke-width="1.5" points="197.5,-1 254.5,-1 266.5,-13 266.5,-25 254.5,-37 197.5,-37 185.5,-25 185.5,-13 197.5,-1"/>
<path fill="#ffffff" stroke="#ffffff" stroke-width="1.5" d="M254.5,-1C260.5,-1 266.5,-7 266.5,-13"/>
<path fill="#ffffff" stroke="#ffffff" stroke-width="1.5" d="M266.5,-25C266.5,-31 260.5,-37 254.5,-37"/>
<path fill="#ffffff" stroke="#ffffff" stroke-width="1.5" d="M197.5,-37C191.5,-37 185.5,-31 185.5,-25"/>
<path fill="#ffffff" stroke="#ffffff" stroke-width="1.5" d="M185.5,-13C185.5,-7 191.5,-1 197.5,-1"/>
<polyline fill="none" stroke="#2e3436" stroke-width="1.5" points="197.5,-1 254.5,-1 "/>
<path fill="none" stroke="#2e3436" stroke-width="1.5" d="M254.5,-1C260.5,-1 266.5,-7 266.5,-13"/>
<polyline fill="none" stroke="#2e3436" stroke-width="1.5" points="266.5,-13 266.5,-25 "/>
<path fill="none" stroke="#2e3436" stroke-width="1.5" d="M266.5,-25C266.5,-31 260.5,-37 254.5,-37"/>
<polyline fill="none" stroke="#2e3436" stroke-width="1.5" points="254.5,-37 197.5,-37 "/>
<path fill="none" stroke="#2e3436" stroke-width="1.5" d="M197.5,-37C191.5,-37 185.5,-31 185.5,-25"/>
<polyline fill="none" stroke="#2e3436" stroke-width="1.5" points="185.5,-25 185.5,-13 "/>
<path fill="none" stroke="#2e3436" stroke-width="1.5" d="M185.5,-13C185.5,-7 191.5,-1 197.5,-1"/>
<text text-anchor="start" x="193.5" y="-16.8" font-family="FreeSans" font-size="8.00" fill="#1c2021">name = &#39;Role3&#39;</text>
</g>
<!-- N0&#45;&gt;N12 -->
<g id="edge4" class="edge"><title>N0&#45;&gt;N12</title>
<path fill="none" stroke="#4e9a06" stroke-width="2" d="M165.477,-84.9237C156.43,-76.4542 149.953,-66.0363 156,-56 161.366,-47.0941 169.672,-40.2209 178.713,-34.9566"/>
<polygon fill="#4e9a06" stroke="#4e9a06" points="185.394,-31.4017 180.358,-37.9042 182.318,-33.6046 179.008,-35.3661 178.773,-34.9247 178.538,-34.4833 181.848,-32.7218 177.187,-31.9452 185.394,-31.4017 185.394,-31.4017"/>
<text text-anchor="middle" x="173" y="-58.8" font-family="FreeSans" font-size="8.00" fill="#4e9a06">hasRole</text>
</g>
<!-- N6 -->
<g id="node7" class="node"><title>N6</title>
<polygon fill="#ffffff" stroke="#ffffff" stroke-width="1.5" points="354.5,-1 411.5,-1 423.5,-13 423.5,-25 411.5,-37 354.5,-37 342.5,-25 342.5,-13 354.5,-1"/>
<path fill="#ffffff" stroke="#ffffff" stroke-width="1.5" d="M411.5,-1C417.5,-1 423.5,-7 423.5,-13"/>
<path fill="#ffffff" stroke="#ffffff" stroke-width="1.5" d="M423.5,-25C423.5,-31 417.5,-37 411.5,-37"/>
<path fill="#ffffff" stroke="#ffffff" stroke-width="1.5" d="M354.5,-37C348.5,-37 342.5,-31 342.5,-25"/>
<path fill="#ffffff" stroke="#ffffff" stroke-width="1.5" d="M342.5,-13C342.5,-7 348.5,-1 354.5,-1"/>
<polyline fill="none" stroke="#2e3436" stroke-width="1.5" points="354.5,-1 411.5,-1 "/>
<path fill="none" stroke="#2e3436" stroke-width="1.5" d="M411.5,-1C417.5,-1 423.5,-7 423.5,-13"/>
<polyline fill="none" stroke="#2e3436" stroke-width="1.5" points="423.5,-13 423.5,-25 "/>
<path fill="none" stroke="#2e3436" stroke-width="1.5" d="M423.5,-25C423.5,-31 417.5,-37 411.5,-37"/>
<polyline fill="none" stroke="#2e3436" stroke-width="1.5" points="411.5,-37 354.5,-37 "/>
<path fill="none" stroke="#2e3436" stroke-width="1.5" d="M354.5,-37C348.5,-37 342.5,-31 342.5,-25"/>
<polyline fill="none" stroke="#2e3436" stroke-width="1.5" points="342.5,-25 342.5,-13 "/>
<path fill="none" stroke="#2e3436" stroke-width="1.5" d="M342.5,-13C342.5,-7 348.5,-1 354.5,-1"/>
<text text-anchor="start" x="350.5" y="-16.8" font-family="FreeSans" font-size="8.00" fill="#1c2021">name = &#39;Role4&#39;</text>
</g>
<!-- N0&#45;&gt;N6 -->
<g id="edge6" class="edge"><title>N0&#45;&gt;N6</title>
<path fill="none" stroke="#4e9a06" stroke-width="2" d="M240.819,-90.0863C279.339,-79.8546 326.942,-67.0979 329,-66 340.335,-59.9544 351.319,-51.129 360.389,-42.754"/>
<polygon fill="#4e9a06" stroke="#4e9a06" points="366.057,-37.3492 362.958,-44.9676 363.688,-40.299 360.974,-42.8869 360.629,-42.5251 360.284,-42.1632 362.998,-39.5753 358.3,-40.0825 366.057,-37.3492 366.057,-37.3492"/>
<text text-anchor="middle" x="360" y="-58.8" font-family="FreeSans" font-size="8.00" fill="#4e9a06">hasRole</text>
</g>
<!-- N1 -->
<g id="node8" class="node"><title>N1</title>
<polygon fill="#ffffff" stroke="#ffffff" stroke-width="1.5" points="421.5,-85 494.5,-85 506.5,-97 506.5,-109 494.5,-121 421.5,-121 409.5,-109 409.5,-97 421.5,-85"/>
<path fill="#ffffff" stroke="#ffffff" stroke-width="1.5" d="M494.5,-85C500.5,-85 506.5,-91 506.5,-97"/>
<path fill="#ffffff" stroke="#ffffff" stroke-width="1.5" d="M506.5,-109C506.5,-115 500.5,-121 494.5,-121"/>
<path fill="#ffffff" stroke="#ffffff" stroke-width="1.5" d="M421.5,-121C415.5,-121 409.5,-115 409.5,-109"/>
<path fill="#ffffff" stroke="#ffffff" stroke-width="1.5" d="M409.5,-97C409.5,-91 415.5,-85 421.5,-85"/>
<polyline fill="none" stroke="#2e3436" stroke-width="1.5" points="421.5,-85 494.5,-85 "/>
<path fill="none" stroke="#2e3436" stroke-width="1.5" d="M494.5,-85C500.5,-85 506.5,-91 506.5,-97"/>
<polyline fill="none" stroke="#2e3436" stroke-width="1.5" points="506.5,-97 506.5,-109 "/>
<path fill="none" stroke="#2e3436" stroke-width="1.5" d="M506.5,-109C506.5,-115 500.5,-121 494.5,-121"/>
<polyline fill="none" stroke="#2e3436" stroke-width="1.5" points="494.5,-121 421.5,-121 "/>
<path fill="none" stroke="#2e3436" stroke-width="1.5" d="M421.5,-121C415.5,-121 409.5,-115 409.5,-109"/>
<polyline fill="none" stroke="#2e3436" stroke-width="1.5" points="409.5,-109 409.5,-97 "/>
<path fill="none" stroke="#2e3436" stroke-width="1.5" d="M409.5,-97C409.5,-91 415.5,-85 421.5,-85"/>
<text text-anchor="start" x="417.5" y="-100.8" font-family="FreeSans" font-size="8.00" fill="#1c2021">name = &#39;U1G3R34&#39;</text>
</g>
<!-- N1&#45;&gt;N12 -->
<g id="edge10" class="edge"><title>N1&#45;&gt;N12</title>
<path fill="none" stroke="#4e9a06" stroke-width="2" d="M409.482,-88.6045C403.286,-86.9542 397.011,-85.3737 391,-84 345.696,-73.6469 330.605,-84.5592 288,-66 274.646,-60.183 261.542,-50.9271 250.846,-42.1615"/>
<polygon fill="#4e9a06" stroke="#4e9a06" points="244.842,-37.0869 252.749,-39.3513 248.029,-39.126 250.893,-41.5469 250.57,-41.9287 250.247,-42.3106 247.384,-39.8896 248.391,-44.5062 244.842,-37.0869 244.842,-37.0869"/>
<text text-anchor="middle" x="305" y="-58.8" font-family="FreeSans" font-size="8.00" fill="#4e9a06">hasRole</text>
</g>
<!-- N1&#45;&gt;N6 -->
<g id="edge12" class="edge"><title>N1&#45;&gt;N6</title>
<path fill="none" stroke="#4e9a06" stroke-width="2" d="M441.726,-84.7733C430.817,-72.5549 416.334,-56.3342 404.481,-43.0586"/>
<polygon fill="#4e9a06" stroke="#4e9a06" points="399.242,-37.1912 406.755,-40.5379 402.113,-39.6554 404.61,-42.4527 404.237,-42.7857 403.864,-43.1187 401.367,-40.3215 401.72,-45.0336 399.242,-37.1912 399.242,-37.1912"/>
<text text-anchor="middle" x="439" y="-58.8" font-family="FreeSans" font-size="8.00" fill="#4e9a06">hasRole</text>
</g>
<!-- N13 -->
<g id="node10" class="node"><title>N13</title>
<polygon fill="#ffffff" stroke="#ffffff" stroke-width="1.5" points="484.5,-1 549.5,-1 561.5,-13 561.5,-25 549.5,-37 484.5,-37 472.5,-25 472.5,-13 484.5,-1"/>
<path fill="#ffffff" stroke="#ffffff" stroke-width="1.5" d="M549.5,-1C555.5,-1 561.5,-7 561.5,-13"/>
<path fill="#ffffff" stroke="#ffffff" stroke-width="1.5" d="M561.5,-25C561.5,-31 555.5,-37 549.5,-37"/>
<path fill="#ffffff" stroke="#ffffff" stroke-width="1.5" d="M484.5,-37C478.5,-37 472.5,-31 472.5,-25"/>
<path fill="#ffffff" stroke="#ffffff" stroke-width="1.5" d="M472.5,-13C472.5,-7 478.5,-1 484.5,-1"/>
<polyline fill="none" stroke="#2e3436" stroke-width="1.5" points="484.5,-1 549.5,-1 "/>
<path fill="none" stroke="#2e3436" stroke-width="1.5" d="M549.5,-1C555.5,-1 561.5,-7 561.5,-13"/>
<polyline fill="none" stroke="#2e3436" stroke-width="1.5" points="561.5,-13 561.5,-25 "/>
<path fill="none" stroke="#2e3436" stroke-width="1.5" d="M561.5,-25C561.5,-31 555.5,-37 549.5,-37"/>
<polyline fill="none" stroke="#2e3436" stroke-width="1.5" points="549.5,-37 484.5,-37 "/>
<path fill="none" stroke="#2e3436" stroke-width="1.5" d="M484.5,-37C478.5,-37 472.5,-31 472.5,-25"/>
<polyline fill="none" stroke="#2e3436" stroke-width="1.5" points="472.5,-25 472.5,-13 "/>
<path fill="none" stroke="#2e3436" stroke-width="1.5" d="M472.5,-13C472.5,-7 478.5,-1 484.5,-1"/>
<text text-anchor="start" x="480.5" y="-16.8" font-family="FreeSans" font-size="8.00" fill="#1c2021">name = &#39;Group3&#39;</text>
</g>
<!-- N1&#45;&gt;N13 -->
<g id="edge8" class="edge"><title>N1&#45;&gt;N13</title>
<path fill="none" stroke="#2e3436" stroke-width="2" d="M470.802,-84.7733C479.307,-72.665 490.572,-56.6261 499.849,-43.4181"/>
<polygon fill="#2e3436" stroke="#2e3436" points="504.223,-37.1912 502.674,-45.2684 502.477,-40.5473 500.321,-43.6159 499.912,-43.3286 499.503,-43.0412 501.658,-39.9725 497.15,-41.3887 504.223,-37.1912 504.223,-37.1912"/>
<text text-anchor="middle" x="510" y="-58.8" font-family="FreeSans" font-size="8.00" fill="#2e3436">hasGroup</text>
</g>
<!-- N2 -->
<g id="node13" class="node"><title>N2</title>
<polygon fill="#ffffff" stroke="#ffffff" stroke-width="1.5" points="449.5,-169 508.5,-169 520.5,-181 520.5,-193 508.5,-205 449.5,-205 437.5,-193 437.5,-181 449.5,-169"/>
<path fill="#ffffff" stroke="#ffffff" stroke-width="1.5" d="M508.5,-169C514.5,-169 520.5,-175 520.5,-181"/>
<path fill="#ffffff" stroke="#ffffff" stroke-width="1.5" d="M520.5,-193C520.5,-199 514.5,-205 508.5,-205"/>
<path fill="#ffffff" stroke="#ffffff" stroke-width="1.5" d="M449.5,-205C443.5,-205 437.5,-199 437.5,-193"/>
<path fill="#ffffff" stroke="#ffffff" stroke-width="1.5" d="M437.5,-181C437.5,-175 443.5,-169 449.5,-169"/>
<polyline fill="none" stroke="#2e3436" stroke-width="1.5" points="449.5,-169 508.5,-169 "/>
<path fill="none" stroke="#2e3436" stroke-width="1.5" d="M508.5,-169C514.5,-169 520.5,-175 520.5,-181"/>
<polyline fill="none" stroke="#2e3436" stroke-width="1.5" points="520.5,-181 520.5,-193 "/>
<path fill="none" stroke="#2e3436" stroke-width="1.5" d="M520.5,-193C520.5,-199 514.5,-205 508.5,-205"/>
<polyline fill="none" stroke="#2e3436" stroke-width="1.5" points="508.5,-205 449.5,-205 "/>
<path fill="none" stroke="#2e3436" stroke-width="1.5" d="M449.5,-205C443.5,-205 437.5,-199 437.5,-193"/>
<polyline fill="none" stroke="#2e3436" stroke-width="1.5" points="437.5,-193 437.5,-181 "/>
<path fill="none" stroke="#2e3436" stroke-width="1.5" d="M437.5,-181C437.5,-175 443.5,-169 449.5,-169"/>
<text text-anchor="start" x="445.5" y="-184.8" font-family="FreeSans" font-size="8.00" fill="#1c2021">name = &#39;User2&#39;</text>
</g>
<!-- N2&#45;&gt;N0 -->
<g id="edge16" class="edge"><title>N2&#45;&gt;N0</title>
<path fill="none" stroke="#a40000" stroke-width="2" d="M437.277,-179.516C403.431,-173.013 354.672,-162.658 313,-150 288.88,-142.674 262.738,-132.777 240.945,-123.954"/>
<polygon fill="#a40000" stroke="#a40000" points="233.73,-121.009 241.949,-120.719 237.391,-121.963 240.863,-123.381 240.674,-123.843 240.485,-124.306 237.013,-122.889 239.398,-126.968 233.73,-121.009 233.73,-121.009"/>
<text text-anchor="middle" x="346.5" y="-142.8" font-family="FreeSans" font-size="8.00" fill="#a40000">hasRoleInGroup</text>
</g>
<!-- N8 -->
<g id="node15" class="node"><title>N8</title>
<polygon fill="#ffffff" stroke="#ffffff" stroke-width="1.5" points="817.5,-85 890.5,-85 902.5,-97 902.5,-109 890.5,-121 817.5,-121 805.5,-109 805.5,-97 817.5,-85"/>
<path fill="#ffffff" stroke="#ffffff" stroke-width="1.5" d="M890.5,-85C896.5,-85 902.5,-91 902.5,-97"/>
<path fill="#ffffff" stroke="#ffffff" stroke-width="1.5" d="M902.5,-109C902.5,-115 896.5,-121 890.5,-121"/>
<path fill="#ffffff" stroke="#ffffff" stroke-width="1.5" d="M817.5,-121C811.5,-121 805.5,-115 805.5,-109"/>
<path fill="#ffffff" stroke="#ffffff" stroke-width="1.5" d="M805.5,-97C805.5,-91 811.5,-85 817.5,-85"/>
<polyline fill="none" stroke="#2e3436" stroke-width="1.5" points="817.5,-85 890.5,-85 "/>
<path fill="none" stroke="#2e3436" stroke-width="1.5" d="M890.5,-85C896.5,-85 902.5,-91 902.5,-97"/>
<polyline fill="none" stroke="#2e3436" stroke-width="1.5" points="902.5,-97 902.5,-109 "/>
<path fill="none" stroke="#2e3436" stroke-width="1.5" d="M902.5,-109C902.5,-115 896.5,-121 890.5,-121"/>
<polyline fill="none" stroke="#2e3436" stroke-width="1.5" points="890.5,-121 817.5,-121 "/>
<path fill="none" stroke="#2e3436" stroke-width="1.5" d="M817.5,-121C811.5,-121 805.5,-115 805.5,-109"/>
<polyline fill="none" stroke="#2e3436" stroke-width="1.5" points="805.5,-109 805.5,-97 "/>
<path fill="none" stroke="#2e3436" stroke-width="1.5" d="M805.5,-97C805.5,-91 811.5,-85 817.5,-85"/>
<text text-anchor="start" x="813.5" y="-100.8" font-family="FreeSans" font-size="8.00" fill="#1c2021">name = &#39;U2G1R25&#39;</text>
</g>
<!-- N2&#45;&gt;N8 -->
<g id="edge14" class="edge"><title>N2&#45;&gt;N8</title>
<path fill="none" stroke="#a40000" stroke-width="2" d="M520.664,-172.003C525.464,-170.533 530.316,-169.159 535,-168 584.367,-155.787 598.071,-159.661 648,-150 699.026,-140.126 756.67,-126.786 797.977,-116.84"/>
<polygon fill="#a40000" stroke="#a40000" points="805.495,-115.024 798.997,-120.066 801.967,-116.39 798.322,-117.271 798.204,-116.785 798.087,-116.299 801.732,-115.418 797.412,-113.504 805.495,-115.024 805.495,-115.024"/>
<text text-anchor="middle" x="726.5" y="-142.8" font-family="FreeSans" font-size="8.00" fill="#a40000">hasRoleInGroup</text>
</g>
<!-- N16 -->
<g id="node18" class="node"><title>N16</title>
<polygon fill="#ffffff" stroke="#ffffff" stroke-width="1.5" points="575.5,-85 648.5,-85 660.5,-97 660.5,-109 648.5,-121 575.5,-121 563.5,-109 563.5,-97 575.5,-85"/>
<path fill="#ffffff" stroke="#ffffff" stroke-width="1.5" d="M648.5,-85C654.5,-85 660.5,-91 660.5,-97"/>
<path fill="#ffffff" stroke="#ffffff" stroke-width="1.5" d="M660.5,-109C660.5,-115 654.5,-121 648.5,-121"/>
<path fill="#ffffff" stroke="#ffffff" stroke-width="1.5" d="M575.5,-121C569.5,-121 563.5,-115 563.5,-109"/>
<path fill="#ffffff" stroke="#ffffff" stroke-width="1.5" d="M563.5,-97C563.5,-91 569.5,-85 575.5,-85"/>
<polyline fill="none" stroke="#2e3436" stroke-width="1.5" points="575.5,-85 648.5,-85 "/>
<path fill="none" stroke="#2e3436" stroke-width="1.5" d="M648.5,-85C654.5,-85 660.5,-91 660.5,-97"/>
<polyline fill="none" stroke="#2e3436" stroke-width="1.5" points="660.5,-97 660.5,-109 "/>
<path fill="none" stroke="#2e3436" stroke-width="1.5" d="M660.5,-109C660.5,-115 654.5,-121 648.5,-121"/>
<polyline fill="none" stroke="#2e3436" stroke-width="1.5" points="648.5,-121 575.5,-121 "/>
<path fill="none" stroke="#2e3436" stroke-width="1.5" d="M575.5,-121C569.5,-121 563.5,-115 563.5,-109"/>
<polyline fill="none" stroke="#2e3436" stroke-width="1.5" points="563.5,-109 563.5,-97 "/>
<path fill="none" stroke="#2e3436" stroke-width="1.5" d="M563.5,-97C563.5,-91 569.5,-85 575.5,-85"/>
<text text-anchor="start" x="571.5" y="-100.8" font-family="FreeSans" font-size="8.00" fill="#1c2021">name = &#39;U2G3R56&#39;</text>
</g>
<!-- N2&#45;&gt;N16 -->
<g id="edge18" class="edge"><title>N2&#45;&gt;N16</title>
<path fill="none" stroke="#a40000" stroke-width="2" d="M520.664,-172.04C534.669,-166.143 550.021,-158.685 563,-150 572.87,-143.395 582.561,-134.71 590.684,-126.604"/>
<polygon fill="#a40000" stroke="#a40000" points="596.041,-121.117 593.216,-128.842 593.779,-124.15 591.159,-126.833 590.802,-126.484 590.444,-126.134 593.064,-123.451 588.387,-124.126 596.041,-121.117 596.041,-121.117"/>
<text text-anchor="middle" x="607.5" y="-142.8" font-family="FreeSans" font-size="8.00" fill="#a40000">hasRoleInGroup</text>
</g>
<!-- N10 -->
<g id="node28" class="node"><title>N10</title>
<polygon fill="#ffffff" stroke="#ffffff" stroke-width="1.5" points="893.5,-1 950.5,-1 962.5,-13 962.5,-25 950.5,-37 893.5,-37 881.5,-25 881.5,-13 893.5,-1"/>
<path fill="#ffffff" stroke="#ffffff" stroke-width="1.5" d="M950.5,-1C956.5,-1 962.5,-7 962.5,-13"/>
<path fill="#ffffff" stroke="#ffffff" stroke-width="1.5" d="M962.5,-25C962.5,-31 956.5,-37 950.5,-37"/>
<path fill="#ffffff" stroke="#ffffff" stroke-width="1.5" d="M893.5,-37C887.5,-37 881.5,-31 881.5,-25"/>
<path fill="#ffffff" stroke="#ffffff" stroke-width="1.5" d="M881.5,-13C881.5,-7 887.5,-1 893.5,-1"/>
<polyline fill="none" stroke="#2e3436" stroke-width="1.5" points="893.5,-1 950.5,-1 "/>
<path fill="none" stroke="#2e3436" stroke-width="1.5" d="M950.5,-1C956.5,-1 962.5,-7 962.5,-13"/>
<polyline fill="none" stroke="#2e3436" stroke-width="1.5" points="962.5,-13 962.5,-25 "/>
<path fill="none" stroke="#2e3436" stroke-width="1.5" d="M962.5,-25C962.5,-31 956.5,-37 950.5,-37"/>
<polyline fill="none" stroke="#2e3436" stroke-width="1.5" points="950.5,-37 893.5,-37 "/>
<path fill="none" stroke="#2e3436" stroke-width="1.5" d="M893.5,-37C887.5,-37 881.5,-31 881.5,-25"/>
<polyline fill="none" stroke="#2e3436" stroke-width="1.5" points="881.5,-25 881.5,-13 "/>
<path fill="none" stroke="#2e3436" stroke-width="1.5" d="M881.5,-13C881.5,-7 887.5,-1 893.5,-1"/>
<text text-anchor="start" x="889.5" y="-16.8" font-family="FreeSans" font-size="8.00" fill="#1c2021">name = &#39;Role2&#39;</text>
</g>
<!-- N8&#45;&gt;N10 -->
<g id="edge34" class="edge"><title>N8&#45;&gt;N10</title>
<path fill="none" stroke="#4e9a06" stroke-width="2" d="M872.352,-84.6581C877.886,-78.8509 883.854,-72.3004 889,-66 894.698,-59.0238 900.484,-51.1181 905.587,-43.8076"/>
<polygon fill="#4e9a06" stroke="#4e9a06" points="910.058,-37.305 908.589,-45.3973 908.345,-40.6783 906.221,-43.7682 905.809,-43.4849 905.397,-43.2016 907.521,-40.1116 903.028,-41.5725 910.058,-37.305 910.058,-37.305"/>
<text text-anchor="middle" x="913" y="-58.8" font-family="FreeSans" font-size="8.00" fill="#4e9a06">hasRole</text>
</g>
<!-- N7 -->
<g id="node30" class="node"><title>N7</title>
<polygon fill="#ffffff" stroke="#ffffff" stroke-width="1.5" points="744.5,-1 801.5,-1 813.5,-13 813.5,-25 801.5,-37 744.5,-37 732.5,-25 732.5,-13 744.5,-1"/>
<path fill="#ffffff" stroke="#ffffff" stroke-width="1.5" d="M801.5,-1C807.5,-1 813.5,-7 813.5,-13"/>
<path fill="#ffffff" stroke="#ffffff" stroke-width="1.5" d="M813.5,-25C813.5,-31 807.5,-37 801.5,-37"/>
<path fill="#ffffff" stroke="#ffffff" stroke-width="1.5" d="M744.5,-37C738.5,-37 732.5,-31 732.5,-25"/>
<path fill="#ffffff" stroke="#ffffff" stroke-width="1.5" d="M732.5,-13C732.5,-7 738.5,-1 744.5,-1"/>
<polyline fill="none" stroke="#2e3436" stroke-width="1.5" points="744.5,-1 801.5,-1 "/>
<path fill="none" stroke="#2e3436" stroke-width="1.5" d="M801.5,-1C807.5,-1 813.5,-7 813.5,-13"/>
<polyline fill="none" stroke="#2e3436" stroke-width="1.5" points="813.5,-13 813.5,-25 "/>
<path fill="none" stroke="#2e3436" stroke-width="1.5" d="M813.5,-25C813.5,-31 807.5,-37 801.5,-37"/>
<polyline fill="none" stroke="#2e3436" stroke-width="1.5" points="801.5,-37 744.5,-37 "/>
<path fill="none" stroke="#2e3436" stroke-width="1.5" d="M744.5,-37C738.5,-37 732.5,-31 732.5,-25"/>
<polyline fill="none" stroke="#2e3436" stroke-width="1.5" points="732.5,-25 732.5,-13 "/>
<path fill="none" stroke="#2e3436" stroke-width="1.5" d="M732.5,-13C732.5,-7 738.5,-1 744.5,-1"/>
<text text-anchor="start" x="740.5" y="-16.8" font-family="FreeSans" font-size="8.00" fill="#1c2021">name = &#39;Role5&#39;</text>
</g>
<!-- N8&#45;&gt;N7 -->
<g id="edge36" class="edge"><title>N8&#45;&gt;N7</title>
<path fill="none" stroke="#4e9a06" stroke-width="2" d="M806.149,-84.8505C797.776,-79.836 789.878,-73.6178 784,-66 779.338,-59.9584 776.601,-52.268 775.009,-44.8662"/>
<polygon fill="#4e9a06" stroke="#4e9a06" points="773.694,-37.0394 778.265,-43.8767 774.808,-40.6548 775.43,-44.353 774.937,-44.4358 774.444,-44.5187 773.822,-40.8205 771.608,-44.9949 773.694,-37.0394 773.694,-37.0394"/>
<text text-anchor="middle" x="801" y="-58.8" font-family="FreeSans" font-size="8.00" fill="#4e9a06">hasRole</text>
</g>
<!-- N9 -->
<g id="node32" class="node"><title>N9</title>
<polygon fill="#ffffff" stroke="#ffffff" stroke-width="1.5" points="1044.5,-1 1109.5,-1 1121.5,-13 1121.5,-25 1109.5,-37 1044.5,-37 1032.5,-25 1032.5,-13 1044.5,-1"/>
<path fill="#ffffff" stroke="#ffffff" stroke-width="1.5" d="M1109.5,-1C1115.5,-1 1121.5,-7 1121.5,-13"/>
<path fill="#ffffff" stroke="#ffffff" stroke-width="1.5" d="M1121.5,-25C1121.5,-31 1115.5,-37 1109.5,-37"/>
<path fill="#ffffff" stroke="#ffffff" stroke-width="1.5" d="M1044.5,-37C1038.5,-37 1032.5,-31 1032.5,-25"/>
<path fill="#ffffff" stroke="#ffffff" stroke-width="1.5" d="M1032.5,-13C1032.5,-7 1038.5,-1 1044.5,-1"/>
<polyline fill="none" stroke="#2e3436" stroke-width="1.5" points="1044.5,-1 1109.5,-1 "/>
<path fill="none" stroke="#2e3436" stroke-width="1.5" d="M1109.5,-1C1115.5,-1 1121.5,-7 1121.5,-13"/>
<polyline fill="none" stroke="#2e3436" stroke-width="1.5" points="1121.5,-13 1121.5,-25 "/>
<path fill="none" stroke="#2e3436" stroke-width="1.5" d="M1121.5,-25C1121.5,-31 1115.5,-37 1109.5,-37"/>
<polyline fill="none" stroke="#2e3436" stroke-width="1.5" points="1109.5,-37 1044.5,-37 "/>
<path fill="none" stroke="#2e3436" stroke-width="1.5" d="M1044.5,-37C1038.5,-37 1032.5,-31 1032.5,-25"/>
<polyline fill="none" stroke="#2e3436" stroke-width="1.5" points="1032.5,-25 1032.5,-13 "/>
<path fill="none" stroke="#2e3436" stroke-width="1.5" d="M1032.5,-13C1032.5,-7 1038.5,-1 1044.5,-1"/>
<text text-anchor="start" x="1040.5" y="-16.8" font-family="FreeSans" font-size="8.00" fill="#1c2021">name = &#39;Group1&#39;</text>
</g>
<!-- N8&#45;&gt;N9 -->
<g id="edge32" class="edge"><title>N8&#45;&gt;N9</title>
<path fill="none" stroke="#2e3436" stroke-width="2" d="M902.698,-99.2356C938.208,-94.9187 986.624,-85.6879 1025,-66 1036.26,-60.2232 1046.95,-51.3832 1055.68,-42.9223"/>
<polygon fill="#2e3436" stroke="#2e3436" points="1061.39,-37.1676 1058.51,-44.8682 1059.11,-40.1814 1056.47,-42.8429 1056.11,-42.4907 1055.76,-42.1385 1058.4,-39.4769 1053.72,-40.1131 1061.39,-37.1676 1061.39,-37.1676"/>
<text text-anchor="middle" x="1060" y="-58.8" font-family="FreeSans" font-size="8.00" fill="#2e3436">hasGroup</text>
</g>
<!-- N16&#45;&gt;N13 -->
<g id="edge44" class="edge"><title>N16&#45;&gt;N13</title>
<path fill="none" stroke="#2e3436" stroke-width="2" d="M591.386,-84.7733C577.319,-72.3348 558.561,-55.7484 543.401,-42.3439"/>
<polygon fill="#2e3436" stroke="#2e3436" points="537.573,-37.1912 545.428,-39.6309 540.714,-39.3006 543.523,-41.7847 543.192,-42.1592 542.861,-42.5338 540.051,-40.0498 540.956,-44.6876 537.573,-37.1912 537.573,-37.1912"/>
<text text-anchor="middle" x="588" y="-58.8" font-family="FreeSans" font-size="8.00" fill="#2e3436">hasGroup</text>
</g>
<!-- N4 -->
<g id="node25" class="node"><title>N4</title>
<polygon fill="#ffffff" stroke="#ffffff" stroke-width="1.5" points="621.5,-1 678.5,-1 690.5,-13 690.5,-25 678.5,-37 621.5,-37 609.5,-25 609.5,-13 621.5,-1"/>
<path fill="#ffffff" stroke="#ffffff" stroke-width="1.5" d="M678.5,-1C684.5,-1 690.5,-7 690.5,-13"/>
<path fill="#ffffff" stroke="#ffffff" stroke-width="1.5" d="M690.5,-25C690.5,-31 684.5,-37 678.5,-37"/>
<path fill="#ffffff" stroke="#ffffff" stroke-width="1.5" d="M621.5,-37C615.5,-37 609.5,-31 609.5,-25"/>
<path fill="#ffffff" stroke="#ffffff" stroke-width="1.5" d="M609.5,-13C609.5,-7 615.5,-1 621.5,-1"/>
<polyline fill="none" stroke="#2e3436" stroke-width="1.5" points="621.5,-1 678.5,-1 "/>
<path fill="none" stroke="#2e3436" stroke-width="1.5" d="M678.5,-1C684.5,-1 690.5,-7 690.5,-13"/>
<polyline fill="none" stroke="#2e3436" stroke-width="1.5" points="690.5,-13 690.5,-25 "/>
<path fill="none" stroke="#2e3436" stroke-width="1.5" d="M690.5,-25C690.5,-31 684.5,-37 678.5,-37"/>
<polyline fill="none" stroke="#2e3436" stroke-width="1.5" points="678.5,-37 621.5,-37 "/>
<path fill="none" stroke="#2e3436" stroke-width="1.5" d="M621.5,-37C615.5,-37 609.5,-31 609.5,-25"/>
<polyline fill="none" stroke="#2e3436" stroke-width="1.5" points="609.5,-25 609.5,-13 "/>
<path fill="none" stroke="#2e3436" stroke-width="1.5" d="M609.5,-13C609.5,-7 615.5,-1 621.5,-1"/>
<text text-anchor="start" x="617.5" y="-16.8" font-family="FreeSans" font-size="8.00" fill="#1c2021">name = &#39;Role6&#39;</text>
</g>
<!-- N16&#45;&gt;N4 -->
<g id="edge48" class="edge"><title>N16&#45;&gt;N4</title>
<path fill="none" stroke="#4e9a06" stroke-width="2" d="M620.245,-84.7733C625.623,-72.8851 632.715,-57.2081 638.627,-44.1413"/>
<polygon fill="#4e9a06" stroke="#4e9a06" points="641.771,-37.1912 641.754,-45.4156 640.681,-40.8139 639.135,-44.2306 638.679,-44.0245 638.224,-43.8184 639.769,-40.4017 635.604,-42.6334 641.771,-37.1912 641.771,-37.1912"/>
<text text-anchor="middle" x="649" y="-58.8" font-family="FreeSans" font-size="8.00" fill="#4e9a06">hasRole</text>
</g>
<!-- N16&#45;&gt;N7 -->
<g id="edge46" class="edge"><title>N16&#45;&gt;N7</title>
<path fill="none" stroke="#4e9a06" stroke-width="2" d="M646.539,-84.9799C671.39,-72.0139 705.03,-54.4625 731.367,-40.7215"/>
<polygon fill="#4e9a06" stroke="#4e9a06" points="738.241,-37.135 733.153,-43.5966 735.148,-39.313 731.823,-41.0476 731.592,-40.6043 731.36,-40.161 734.685,-38.4264 730.031,-37.6121 738.241,-37.135 738.241,-37.135"/>
<text text-anchor="middle" x="714" y="-58.8" font-family="FreeSans" font-size="8.00" fill="#4e9a06">hasRole</text>
</g>
<!-- N3 -->
<g id="node19" class="node"><title>N3</title>
<polygon fill="#ffffff" stroke="#ffffff" stroke-width="1.5" points="560.5,-169 619.5,-169 631.5,-181 631.5,-193 619.5,-205 560.5,-205 548.5,-193 548.5,-181 560.5,-169"/>
<path fill="#ffffff" stroke="#ffffff" stroke-width="1.5" d="M619.5,-169C625.5,-169 631.5,-175 631.5,-181"/>
<path fill="#ffffff" stroke="#ffffff" stroke-width="1.5" d="M631.5,-193C631.5,-199 625.5,-205 619.5,-205"/>
<path fill="#ffffff" stroke="#ffffff" stroke-width="1.5" d="M560.5,-205C554.5,-205 548.5,-199 548.5,-193"/>
<path fill="#ffffff" stroke="#ffffff" stroke-width="1.5" d="M548.5,-181C548.5,-175 554.5,-169 560.5,-169"/>
<polyline fill="none" stroke="#2e3436" stroke-width="1.5" points="560.5,-169 619.5,-169 "/>
<path fill="none" stroke="#2e3436" stroke-width="1.5" d="M619.5,-169C625.5,-169 631.5,-175 631.5,-181"/>
<polyline fill="none" stroke="#2e3436" stroke-width="1.5" points="631.5,-181 631.5,-193 "/>
<path fill="none" stroke="#2e3436" stroke-width="1.5" d="M631.5,-193C631.5,-199 625.5,-205 619.5,-205"/>
<polyline fill="none" stroke="#2e3436" stroke-width="1.5" points="619.5,-205 560.5,-205 "/>
<path fill="none" stroke="#2e3436" stroke-width="1.5" d="M560.5,-205C554.5,-205 548.5,-199 548.5,-193"/>
<polyline fill="none" stroke="#2e3436" stroke-width="1.5" points="548.5,-193 548.5,-181 "/>
<path fill="none" stroke="#2e3436" stroke-width="1.5" d="M548.5,-181C548.5,-175 554.5,-169 560.5,-169"/>
<text text-anchor="start" x="556.5" y="-184.8" font-family="FreeSans" font-size="8.00" fill="#1c2021">name = &#39;User1&#39;</text>
</g>
<!-- N3&#45;&gt;N1 -->
<g id="edge24" class="edge"><title>N3&#45;&gt;N1</title>
<path fill="none" stroke="#a40000" stroke-width="2" d="M548.458,-172.379C524.364,-163.684 497.834,-153.656 493,-150 485.013,-143.959 477.993,-135.614 472.378,-127.631"/>
<polygon fill="#a40000" stroke="#a40000" points="468.001,-121.068 474.97,-125.435 470.498,-123.911 472.578,-127.031 472.162,-127.308 471.746,-127.585 469.666,-124.466 469.355,-129.181 468.001,-121.068 468.001,-121.068"/>
<text text-anchor="middle" x="526.5" y="-142.8" font-family="FreeSans" font-size="8.00" fill="#a40000">hasRoleInGroup</text>
</g>
<!-- N14 -->
<g id="node21" class="node"><title>N14</title>
<polygon fill="#ffffff" stroke="#ffffff" stroke-width="1.5" points="1025.5,-85 1098.5,-85 1110.5,-97 1110.5,-109 1098.5,-121 1025.5,-121 1013.5,-109 1013.5,-97 1025.5,-85"/>
<path fill="#ffffff" stroke="#ffffff" stroke-width="1.5" d="M1098.5,-85C1104.5,-85 1110.5,-91 1110.5,-97"/>
<path fill="#ffffff" stroke="#ffffff" stroke-width="1.5" d="M1110.5,-109C1110.5,-115 1104.5,-121 1098.5,-121"/>
<path fill="#ffffff" stroke="#ffffff" stroke-width="1.5" d="M1025.5,-121C1019.5,-121 1013.5,-115 1013.5,-109"/>
<path fill="#ffffff" stroke="#ffffff" stroke-width="1.5" d="M1013.5,-97C1013.5,-91 1019.5,-85 1025.5,-85"/>
<polyline fill="none" stroke="#2e3436" stroke-width="1.5" points="1025.5,-85 1098.5,-85 "/>
<path fill="none" stroke="#2e3436" stroke-width="1.5" d="M1098.5,-85C1104.5,-85 1110.5,-91 1110.5,-97"/>
<polyline fill="none" stroke="#2e3436" stroke-width="1.5" points="1110.5,-97 1110.5,-109 "/>
<path fill="none" stroke="#2e3436" stroke-width="1.5" d="M1110.5,-109C1110.5,-115 1104.5,-121 1098.5,-121"/>
<polyline fill="none" stroke="#2e3436" stroke-width="1.5" points="1098.5,-121 1025.5,-121 "/>
<path fill="none" stroke="#2e3436" stroke-width="1.5" d="M1025.5,-121C1019.5,-121 1013.5,-115 1013.5,-109"/>
<polyline fill="none" stroke="#2e3436" stroke-width="1.5" points="1013.5,-109 1013.5,-97 "/>
<path fill="none" stroke="#2e3436" stroke-width="1.5" d="M1013.5,-97C1013.5,-91 1019.5,-85 1025.5,-85"/>
<text text-anchor="start" x="1021.5" y="-100.8" font-family="FreeSans" font-size="8.00" fill="#1c2021">name = &#39;U1G1R12&#39;</text>
</g>
<!-- N3&#45;&gt;N14 -->
<g id="edge20" class="edge"><title>N3&#45;&gt;N14</title>
<path fill="none" stroke="#a40000" stroke-width="2" d="M631.887,-179.546C716.899,-164.416 909.731,-130.099 1005.65,-113.029"/>
<polygon fill="#a40000" stroke="#a40000" points="1013.22,-111.681 1006.43,-116.318 1009.62,-112.83 1005.92,-113.488 1005.84,-112.995 1005.75,-112.503 1009.44,-111.846 1005.25,-109.672 1013.22,-111.681 1013.22,-111.681"/>
<text text-anchor="middle" x="873.5" y="-142.8" font-family="FreeSans" font-size="8.00" fill="#a40000">hasRoleInGroup</text>
</g>
<!-- N5 -->
<g id="node23" class="node"><title>N5</title>
<polygon fill="#ffffff" stroke="#ffffff" stroke-width="1.5" points="291.5,-85 364.5,-85 376.5,-97 376.5,-109 364.5,-121 291.5,-121 279.5,-109 279.5,-97 291.5,-85"/>
<path fill="#ffffff" stroke="#ffffff" stroke-width="1.5" d="M364.5,-85C370.5,-85 376.5,-91 376.5,-97"/>
<path fill="#ffffff" stroke="#ffffff" stroke-width="1.5" d="M376.5,-109C376.5,-115 370.5,-121 364.5,-121"/>
<path fill="#ffffff" stroke="#ffffff" stroke-width="1.5" d="M291.5,-121C285.5,-121 279.5,-115 279.5,-109"/>
<path fill="#ffffff" stroke="#ffffff" stroke-width="1.5" d="M279.5,-97C279.5,-91 285.5,-85 291.5,-85"/>
<polyline fill="none" stroke="#2e3436" stroke-width="1.5" points="291.5,-85 364.5,-85 "/>
<path fill="none" stroke="#2e3436" stroke-width="1.5" d="M364.5,-85C370.5,-85 376.5,-91 376.5,-97"/>
<polyline fill="none" stroke="#2e3436" stroke-width="1.5" points="376.5,-97 376.5,-109 "/>
<path fill="none" stroke="#2e3436" stroke-width="1.5" d="M376.5,-109C376.5,-115 370.5,-121 364.5,-121"/>
<polyline fill="none" stroke="#2e3436" stroke-width="1.5" points="364.5,-121 291.5,-121 "/>
<path fill="none" stroke="#2e3436" stroke-width="1.5" d="M291.5,-121C285.5,-121 279.5,-115 279.5,-109"/>
<polyline fill="none" stroke="#2e3436" stroke-width="1.5" points="279.5,-109 279.5,-97 "/>
<path fill="none" stroke="#2e3436" stroke-width="1.5" d="M279.5,-97C279.5,-91 285.5,-85 291.5,-85"/>
<text text-anchor="start" x="287.5" y="-100.8" font-family="FreeSans" font-size="8.00" fill="#1c2021">name = &#39;U1G2R23&#39;</text>
</g>
<!-- N3&#45;&gt;N5 -->
<g id="edge22" class="edge"><title>N3&#45;&gt;N5</title>
<path fill="none" stroke="#a40000" stroke-width="2" d="M548.206,-171.635C543.782,-170.288 539.321,-169.042 535,-168 479.581,-154.631 461.821,-168.796 408,-150 390.988,-144.059 373.567,-134.335 359.344,-125.269"/>
<polygon fill="#a40000" stroke="#a40000" points="353.047,-121.166 361.173,-122.433 356.462,-122.795 359.603,-124.842 359.331,-125.261 359.058,-125.68 355.916,-123.632 357.488,-128.088 353.047,-121.166 353.047,-121.166"/>
<text text-anchor="middle" x="441.5" y="-142.8" font-family="FreeSans" font-size="8.00" fill="#a40000">hasRoleInGroup</text>
</g>
<!-- N14&#45;&gt;N10 -->
<g id="edge42" class="edge"><title>N14&#45;&gt;N10</title>
<path fill="none" stroke="#4e9a06" stroke-width="2" d="M1022.98,-84.9048C1011.52,-79.2103 999.08,-72.66 988,-66 975.805,-58.6697 962.944,-49.7946 951.846,-41.7399"/>
<polygon fill="#4e9a06" stroke="#4e9a06" points="945.534,-37.1101 953.578,-38.8246 948.853,-38.9249 951.877,-41.1428 951.581,-41.546 951.286,-41.9492 948.262,-39.7312 949.585,-44.2674 945.534,-37.1101 945.534,-37.1101"/>
<text text-anchor="middle" x="1005" y="-58.8" font-family="FreeSans" font-size="8.00" fill="#4e9a06">hasRole</text>
</g>
<!-- N14&#45;&gt;N9 -->
<g id="edge38" class="edge"><title>N14&#45;&gt;N9</title>
<path fill="none" stroke="#2e3436" stroke-width="2" d="M1087.37,-84.7017C1092.89,-79.3546 1097.98,-73.0315 1101,-66 1104.21,-58.524 1102.31,-50.5785 1098.45,-43.389"/>
<polygon fill="#2e3436" stroke="#2e3436" points="1094.45,-37.0341 1101.3,-41.5821 1096.87,-39.9409 1098.87,-43.1141 1098.44,-43.3806 1098.02,-43.647 1096.02,-40.4738 1095.59,-45.179 1094.45,-37.0341 1094.45,-37.0341"/>
<text text-anchor="middle" x="1123" y="-58.8" font-family="FreeSans" font-size="8.00" fill="#2e3436">hasGroup</text>
</g>
<!-- N15 -->
<g id="node37" class="node"><title>N15</title>
<polygon fill="#ffffff" stroke="#ffffff" stroke-width="1.5" points="1181.5,-1 1238.5,-1 1250.5,-13 1250.5,-25 1238.5,-37 1181.5,-37 1169.5,-25 1169.5,-13 1181.5,-1"/>
<path fill="#ffffff" stroke="#ffffff" stroke-width="1.5" d="M1238.5,-1C1244.5,-1 1250.5,-7 1250.5,-13"/>
<path fill="#ffffff" stroke="#ffffff" stroke-width="1.5" d="M1250.5,-25C1250.5,-31 1244.5,-37 1238.5,-37"/>
<path fill="#ffffff" stroke="#ffffff" stroke-width="1.5" d="M1181.5,-37C1175.5,-37 1169.5,-31 1169.5,-25"/>
<path fill="#ffffff" stroke="#ffffff" stroke-width="1.5" d="M1169.5,-13C1169.5,-7 1175.5,-1 1181.5,-1"/>
<polyline fill="none" stroke="#2e3436" stroke-width="1.5" points="1181.5,-1 1238.5,-1 "/>
<path fill="none" stroke="#2e3436" stroke-width="1.5" d="M1238.5,-1C1244.5,-1 1250.5,-7 1250.5,-13"/>
<polyline fill="none" stroke="#2e3436" stroke-width="1.5" points="1250.5,-13 1250.5,-25 "/>
<path fill="none" stroke="#2e3436" stroke-width="1.5" d="M1250.5,-25C1250.5,-31 1244.5,-37 1238.5,-37"/>
<polyline fill="none" stroke="#2e3436" stroke-width="1.5" points="1238.5,-37 1181.5,-37 "/>
<path fill="none" stroke="#2e3436" stroke-width="1.5" d="M1181.5,-37C1175.5,-37 1169.5,-31 1169.5,-25"/>
<polyline fill="none" stroke="#2e3436" stroke-width="1.5" points="1169.5,-25 1169.5,-13 "/>
<path fill="none" stroke="#2e3436" stroke-width="1.5" d="M1169.5,-13C1169.5,-7 1175.5,-1 1181.5,-1"/>
<text text-anchor="start" x="1177.5" y="-16.8" font-family="FreeSans" font-size="8.00" fill="#1c2021">name = &#39;Role1&#39;</text>
</g>
<!-- N14&#45;&gt;N15 -->
<g id="edge40" class="edge"><title>N14&#45;&gt;N15</title>
<path fill="none" stroke="#4e9a06" stroke-width="2" d="M1110.76,-85.5921C1124.17,-80.0454 1138.46,-73.4014 1151,-66 1162.58,-59.1631 1174.36,-50.2488 1184.32,-42.0237"/>
<polygon fill="#4e9a06" stroke="#4e9a06" points="1190.27,-37.0162 1186.71,-44.4284 1187.72,-39.8139 1184.86,-42.2291 1184.53,-41.8466 1184.21,-41.4641 1187.08,-39.0489 1182.36,-39.2647 1190.27,-37.0162 1190.27,-37.0162"/>
<text text-anchor="middle" x="1181" y="-58.8" font-family="FreeSans" font-size="8.00" fill="#4e9a06">hasRole</text>
</g>
<!-- N5&#45;&gt;N11 -->
<g id="edge26" class="edge"><title>N5&#45;&gt;N11</title>
<path fill="none" stroke="#2e3436" stroke-width="2" d="M279.242,-89.5175C270.865,-87.478 262.212,-85.5435 254,-84 188.444,-71.6793 166.736,-91.2585 105,-66 91.5534,-60.4985 78.5307,-51.1984 67.9952,-42.3161"/>
<polygon fill="#2e3436" stroke="#2e3436" points="62.095,-37.1664 69.9648,-39.5554 65.249,-39.2556 68.0743,-41.7215 67.7455,-42.0982 67.4167,-42.4749 64.5915,-40.009 65.5262,-44.6409 62.095,-37.1664 62.095,-37.1664"/>
<text text-anchor="middle" x="126" y="-58.8" font-family="FreeSans" font-size="8.00" fill="#2e3436">hasGroup</text>
</g>
<!-- N5&#45;&gt;N12 -->
<g id="edge30" class="edge"><title>N5&#45;&gt;N12</title>
<path fill="none" stroke="#4e9a06" stroke-width="2" d="M279.312,-91.4572C255.664,-84.7649 230.878,-75.7473 224,-66 219.712,-59.9234 218.728,-52.2228 219.239,-44.8225"/>
<polygon fill="#4e9a06" stroke="#4e9a06" points="220.296,-37.0013 222.636,-44.8857 220.289,-40.7845 219.787,-44.5008 219.292,-44.4338 218.796,-44.3669 219.298,-40.6506 215.947,-43.9819 220.296,-37.0013 220.296,-37.0013"/>
<text text-anchor="middle" x="241" y="-58.8" font-family="FreeSans" font-size="8.00" fill="#4e9a06">hasRole</text>
</g>
<!-- N5&#45;&gt;N10 -->
<g id="edge28" class="edge"><title>N5&#45;&gt;N10</title>
<path fill="none" stroke="#4e9a06" stroke-width="2" d="M376.73,-87.9367C383.161,-86.3763 389.705,-84.9991 396,-84 489.361,-69.1829 729.156,-88.372 821,-66 832.963,-63.0859 858.011,-51.4437 880.169,-40.4765"/>
<polygon fill="#4e9a06" stroke="#4e9a06" points="886.935,-37.105 881.728,-43.4707 883.802,-39.225 880.445,-40.8975 880.222,-40.45 879.999,-40.0025 883.356,-38.33 878.717,-37.4292 886.935,-37.105 886.935,-37.105"/>
<text text-anchor="middle" x="862" y="-58.8" font-family="FreeSans" font-size="8.00" fill="#4e9a06">hasRole</text>
</g>
</g>
</svg>
